<svg width="740" height="740" viewBox="0 0 740 740" fill="none" xmlns="http://www.w3.org/2000/svg">
<path d="M309.641 600.611H430.313V669.347H309.641V600.611Z" fill="#939598"/>
<path d="M415.86 600.611V640.441C415.86 648.422 409.387 654.894 401.406 654.894H309.641V669.347H430.313V600.611H415.86Z" fill="#808285"/>
<path d="M229.027 726.953H510.944C514.138 726.953 516.725 724.365 516.725 721.171V698.254C516.725 682.289 503.784 669.348 487.819 669.348H252.152C236.187 669.348 223.246 682.289 223.246 698.254V721.171C223.246 724.365 225.833 726.953 229.027 726.953Z" fill="#58595B"/>
<path d="M499.7 671.923C501.339 675.551 502.272 679.563 502.272 683.804V706.721C502.272 709.915 499.685 712.502 496.491 712.502H223.246V721.174C223.246 724.368 225.833 726.955 229.027 726.955H510.944C514.138 726.955 516.725 724.368 516.725 721.174V698.257C516.725 686.53 509.73 676.456 499.7 671.923Z" fill="#414042"/>
<path d="M90.4961 600.611H649.456C665.421 600.611 678.363 587.67 678.363 571.705V215.317C678.363 199.352 665.421 186.411 649.456 186.411H90.4961C74.5312 186.411 61.5898 199.352 61.5898 215.317V571.708C61.5898 587.67 74.5312 600.611 90.4961 600.611Z" fill="#58595B"/>
<path d="M661.339 188.984C662.978 192.612 663.912 196.624 663.912 200.865V557.256C663.912 573.221 650.971 586.162 635.006 586.162H76.0484C71.8108 586.162 67.7957 585.228 64.168 583.589C68.7034 593.623 78.7743 600.615 90.5016 600.615H649.462C665.427 600.615 678.368 587.674 678.368 571.709V215.318C678.368 203.591 671.373 193.52 661.339 188.984Z" fill="#414042"/>
<path d="M115.117 559.378H624.859C632.84 559.378 639.312 552.905 639.312 544.924V242.1C639.312 234.119 632.84 227.646 624.859 227.646H115.117C107.136 227.646 100.664 234.119 100.664 242.1V544.924C100.664 552.905 107.133 559.378 115.117 559.378Z" fill="#005E96"/>
<path d="M624.856 227.646V530.471C624.856 538.452 618.384 544.924 610.403 544.924H100.664C100.664 552.905 107.136 559.378 115.117 559.378H624.859C632.84 559.378 639.312 552.905 639.312 544.924V242.1C639.309 234.119 632.84 227.646 624.856 227.646Z" fill="#003B5E"/>
<path d="M583.168 559.378H156.801V36.175C156.801 28.194 163.273 21.7219 171.254 21.7219H568.715C576.696 21.7219 583.168 28.194 583.168 36.175V559.378Z" fill="#F1F2F2"/>
<path d="M174.145 214.871C170.953 214.871 168.363 212.281 168.363 209.09V70.34C168.363 67.1488 170.953 64.5588 174.145 64.5588C177.336 64.5588 179.926 67.1488 179.926 70.34V209.09C179.926 212.284 177.336 214.871 174.145 214.871ZM174.145 52.9963C170.953 52.9963 168.363 50.4063 168.363 47.215V44.8447C168.363 41.6535 170.953 39.0635 174.145 39.0635C177.336 39.0635 179.926 41.6535 179.926 44.8447V47.215C179.926 50.4092 177.336 52.9963 174.145 52.9963Z" fill="white"/>
<path d="M568.715 21.7219H554.262V516.019C554.262 524 547.79 530.472 539.809 530.472H156.801V559.378H583.168V36.175C583.168 28.1911 576.696 21.7219 568.715 21.7219Z" fill="#E6E7E8"/>
<path d="M568.715 21.7219V530.472C568.715 538.453 562.243 544.925 554.262 544.925H156.801V559.378H583.168V36.175C583.168 28.1911 576.696 21.7219 568.715 21.7219Z" fill="#D1D3D4"/>
<path d="M502.965 522.259H237.027C233.836 522.259 231.246 519.669 231.246 516.478C231.246 513.286 233.836 510.696 237.027 510.696H502.965C506.156 510.696 508.746 513.286 508.746 516.478C508.746 519.669 506.156 522.259 502.965 522.259Z" fill="#414042"/>
<path d="M431.516 266.44V458.667H484.775V266.44C484.775 263.246 482.188 260.659 478.994 260.659H437.297C434.106 260.659 431.516 263.246 431.516 266.44Z" fill="#F6A938"/>
<path d="M478.998 260.657H470.326V429.759C470.326 437.74 463.854 444.212 455.873 444.212H431.52V458.665H484.779V266.438C484.779 263.244 482.192 260.657 478.998 260.657Z" fill="#F18B00"/>
<path d="M255.188 388.989V458.668H308.447V388.989C308.447 385.795 305.86 383.208 302.666 383.208H260.969C257.775 383.208 255.188 385.795 255.188 388.989Z" fill="#005E96"/>
<path d="M302.67 383.208H293.998V429.762C293.998 437.743 287.526 444.215 279.545 444.215H255.191V458.668H308.451V388.989C308.451 385.795 305.861 383.208 302.67 383.208Z" fill="#003B5E"/>
<path d="M343.363 321.813V458.667H396.623V321.813C396.623 318.619 394.036 316.032 390.842 316.032H349.145C345.95 316.032 343.363 318.622 343.363 321.813Z" fill="#1A8083"/>
<path d="M390.842 316.032H382.17V429.76C382.17 437.742 375.698 444.214 367.717 444.214H343.363V458.667H396.623V321.813C396.623 318.622 394.036 316.032 390.842 316.032Z" fill="#125A5C"/>
<path d="M502.965 464.446H237.027C233.836 464.446 231.246 461.856 231.246 458.665C231.246 455.474 233.836 452.884 237.027 452.884H502.965C506.156 452.884 508.746 455.474 508.746 458.665C508.746 461.856 506.156 464.446 502.965 464.446Z" fill="#414042"/>
<path d="M370.004 253.165C421.888 253.165 463.949 211.104 463.949 159.22C463.949 107.335 421.888 65.2744 370.004 65.2744C318.119 65.2744 276.059 107.335 276.059 159.22C276.059 211.104 318.119 253.165 370.004 253.165Z" fill="url(#paint0_linear_4358_133)"/>
<g clip-path="url(#clip0_4358_133)">
<path d="M390.176 155.091C389.013 154.62 387.835 154.191 386.649 153.8C393.922 148.345 398.637 139.653 398.637 129.882C398.637 113.405 385.231 99.9995 368.754 99.9995C352.276 99.9995 338.871 113.405 338.871 129.882C338.871 139.662 343.594 148.36 350.878 153.814C344.205 156.011 337.942 159.428 332.461 163.936C322.413 172.201 315.427 183.73 312.789 196.399C311.962 200.368 312.953 204.445 315.506 207.585C318.046 210.708 321.812 212.5 325.84 212.5H387.211C389.637 212.5 391.606 210.532 391.606 208.105C391.606 205.678 389.637 203.71 387.211 203.71H325.84C323.963 203.71 322.832 202.663 322.324 202.039C321.448 200.961 321.109 199.559 321.393 198.19C325.957 176.269 345.302 160.261 367.636 159.742C368.006 159.756 368.379 159.765 368.754 159.765C369.131 159.765 369.505 159.756 369.879 159.742C375.754 159.875 381.468 161.049 386.881 163.239C389.132 164.148 391.693 163.062 392.603 160.812C393.513 158.562 392.427 156.001 390.176 155.091ZM347.66 129.882C347.66 118.251 357.122 108.789 368.754 108.789C380.385 108.789 389.848 118.251 389.848 129.882C389.848 141.175 380.927 150.422 369.763 150.951C369.427 150.946 369.09 150.94 368.754 150.94C368.411 150.94 368.068 150.944 367.726 150.951C356.57 150.413 347.66 141.169 347.66 129.882ZM425.004 192.469V193.548C425.004 199.743 420.498 204.716 414.453 205.56V208.105C414.453 210.532 412.485 212.5 410.058 212.5C407.631 212.5 405.664 210.532 405.664 208.105V205.678C399.715 205.473 395.112 200.823 395.112 194.921C395.112 192.494 397.08 190.527 399.506 190.527C401.934 190.527 403.901 192.494 403.901 194.921C403.901 196.22 404.994 196.899 406.074 196.899H412.619C414.669 196.899 416.215 195.458 416.215 193.548V192.469C416.215 190.517 414.636 188.989 412.619 188.989H408.592C401.776 188.989 396.231 183.37 396.231 176.464V174.862C396.231 171.54 397.527 168.443 399.881 166.141C401.497 164.56 403.489 163.476 405.664 162.961V159.985C405.664 157.558 407.631 155.59 410.058 155.59C412.485 155.59 414.453 157.558 414.453 159.985V162.81C419.576 163.753 423.466 168.147 423.466 173.414C423.466 175.84 421.498 177.808 419.071 177.808C416.644 177.808 414.677 175.84 414.677 173.414C414.677 172.16 413.519 171.411 412.4 171.411H408.592C406.556 171.411 405.02 172.895 405.02 174.862V176.464C405.02 178.489 406.656 180.2 408.592 180.2H412.619C415.918 180.2 419.016 181.455 421.344 183.735C423.704 186.046 425.004 189.148 425.004 192.469Z" fill="white"/>
</g>
<defs>
<linearGradient id="paint0_linear_4358_133" x1="293.754" y1="96.2485" x2="415.004" y2="208.749" gradientUnits="userSpaceOnUse">
<stop stop-color="#00B6AB"/>
<stop offset="1" stop-color="#007B73"/>
</linearGradient>
<clipPath id="clip0_4358_133">
<rect width="112.5" height="112.5" fill="white" transform="translate(312.504 99.9995)"/>
</clipPath>
</defs>
</svg>
