<?xml version="1.0" encoding="UTF-8"?><svg id="Camada_1" xmlns="http://www.w3.org/2000/svg" xmlns:xlink="http://www.w3.org/1999/xlink" viewBox="0 0 1000 1000"><defs><style>.cls-1{fill:url(#Gradiente_sem_nome_2);}.cls-2{fill:url(#Gradiente_sem_nome_101-2);}.cls-3{fill:url(#Gradiente_sem_nome_101-3);}.cls-4{fill:#fff;}.cls-5{fill:url(#Gradiente_sem_nome_34);}.cls-6{fill:url(#Azul_Icone-3);}.cls-7{fill:url(#Azul_Icone-2);}.cls-8{fill:url(#Azul_Icone);}.cls-9{fill:url(#Gradiente_sem_nome_100);}.cls-10{fill:url(#Gradiente_sem_nome_101);}</style><linearGradient id="Gradiente_sem_nome_2" x1="115.98" y1="469.69" x2="884.02" y2="469.69" gradientTransform="matrix(1, 0, 0, 1, 0, 0)" gradientUnits="userSpaceOnUse"><stop offset=".37" stop-color="#fd9500"/><stop offset=".57" stop-color="#fd9706"/><stop offset=".85" stop-color="#fe9e1a"/><stop offset="1" stop-color="#ffa328"/></linearGradient><linearGradient id="Gradiente_sem_nome_34" x1="479.95" y1="174.77" x2="755.4" y2="174.77" gradientTransform="matrix(1, 0, 0, 1, 0, 0)" gradientUnits="userSpaceOnUse"><stop offset="0" stop-color="#00898e"/><stop offset=".33" stop-color="#008c8f"/><stop offset=".63" stop-color="#009794"/><stop offset=".91" stop-color="#00a99b"/><stop offset="1" stop-color="#00b19f"/></linearGradient><linearGradient id="Azul_Icone" x1="133.35" y1="308.52" x2="197.22" y2="308.52" gradientTransform="matrix(1, 0, 0, 1, 0, 0)" gradientUnits="userSpaceOnUse"><stop offset="0" stop-color="#0076a8"/><stop offset=".24" stop-color="#006ea4"/><stop offset="1" stop-color="#005a99"/></linearGradient><linearGradient id="Azul_Icone-2" x1="93.66" y1="417.37" x2="164.14" y2="417.37" xlink:href="#Azul_Icone"/><linearGradient id="Azul_Icone-3" x1="118.66" y1="529.83" x2="184.97" y2="529.83" xlink:href="#Azul_Icone"/><linearGradient id="Gradiente_sem_nome_101" x1="802.78" y1="308.52" x2="866.65" y2="308.52" gradientTransform="matrix(1, 0, 0, 1, 0, 0)" gradientUnits="userSpaceOnUse"><stop offset="0" stop-color="#005a99"/><stop offset=".76" stop-color="#006ea4"/><stop offset="1" stop-color="#0076a8"/></linearGradient><linearGradient id="Gradiente_sem_nome_101-2" x1="835.86" y1="417.37" x2="906.34" y2="417.37" xlink:href="#Gradiente_sem_nome_101"/><linearGradient id="Gradiente_sem_nome_101-3" x1="815.03" y1="529.83" x2="881.34" y2="529.83" xlink:href="#Gradiente_sem_nome_101"/><linearGradient id="Gradiente_sem_nome_100" x1="358.91" y1="905.38" x2="641.09" y2="905.38" gradientTransform="matrix(1, 0, 0, 1, 0, 0)" gradientUnits="userSpaceOnUse"><stop offset="0" stop-color="#0076a8"/><stop offset=".24" stop-color="#006ea4"/><stop offset="1" stop-color="#005a99"/></linearGradient></defs><path class="cls-1" d="M860.18,695.54c-58.07-49.08-91.36-120.82-91.36-196.81v-107.06c0-3.97-.37-7.86-.55-11.79-.04-.99-.08-1.98-.14-2.97-1.5-27.34-7.27-53.47-16.37-78.03,0,0-16.6-36.68-48.37-76.29h-1.06c-16.38,0-29.66,13.28-29.66,29.66v45.56c0,29.64-24.03,53.67-53.67,53.67h-3.35c-29.52,0-53.67-24.15-53.67-53.67v-36.22c0-21.54-17.46-39-39-39h-28.29c-29.52,0-53.67-24.15-53.67-53.67,0-18.23,9.53-34.32,23.82-43.61-132.06,17.08-234.08,129.96-234.08,266.67,0,5.01,.16,9.98,.43,14.92v91.84c0,76-33.29,147.73-91.7,197.12-14.94,12.79-23.51,31.38-23.51,51.04,0,37.06,30.15,67.21,67.21,67.21H816.82c37.06,0,67.2-30.15,67.2-67.21,0-19.66-8.56-38.25-23.84-51.34Z"/><path class="cls-5" d="M725.43,201.26h-46.36c-16.55,0-29.97,13.42-29.97,29.97v51.33c0,16.55-13.42,29.97-29.97,29.97h-3.44c-16.55,0-29.97-13.42-29.97-29.97v-51.33c0-16.55-13.42-29.97-29.97-29.97h-45.86c-16.55,0-29.97-13.42-29.97-29.97h0c0-16.55,13.42-29.97,29.97-29.97h45.86c16.55,0,29.97-13.42,29.97-29.97v-44.39c0-16.55,13.42-29.97,29.97-29.97h3.44c16.55,0,29.97,13.42,29.97,29.97v44.39c0,16.55,13.42,29.97,29.97,29.97h46.36c16.55,0,29.97,13.42,29.97,29.97h0c0,16.55-13.42,29.97-29.97,29.97Z"/><g><path class="cls-8" d="M194.7,327.98c-4.61,6.97-13.98,8.88-20.95,4.27l-33.62-22.24c-6.97-4.61-8.88-13.98-4.27-20.95,4.61-6.97,13.98-8.88,20.95-4.27l33.62,22.24c6.97,4.61,8.88,13.98,4.27,20.95h0Zm0,0"/><path class="cls-7" d="M161.64,426.92c-2.88,4.36-7.95,7.1-13.54,6.76l-40.24-2.45c-8.34-.51-14.68-7.68-14.17-16.01,.51-8.33,7.68-14.68,16.01-14.17l40.24,2.45c8.33,.51,14.68,7.68,14.17,16.01-.17,2.75-1.06,5.27-2.47,7.41h0Zm0,0"/><path class="cls-6" d="M182.45,529.18c-1.42,2.14-3.4,3.95-5.86,5.17l-36.07,18c-7.47,3.73-16.55,.7-20.28-6.77-3.72-7.47-.7-16.55,6.78-20.28l36.07-18c7.47-3.73,16.54-.69,20.27,6.78,2.5,5.01,1.96,10.75-.92,15.1h0Zm0,0"/></g><path class="cls-10" d="M805.3,327.98c-4.61-6.97-2.7-16.34,4.27-20.95l33.62-22.24c6.97-4.61,16.34-2.7,20.95,4.27,4.61,6.97,2.7,16.34-4.27,20.95l-33.62,22.24c-6.97,4.61-16.34,2.7-20.95-4.27h0Zm0,0"/><path class="cls-2" d="M838.36,426.92c-1.41-2.14-2.3-4.66-2.47-7.41-.51-8.33,5.84-15.5,14.17-16.01l40.24-2.45c8.33-.51,15.5,5.84,16.01,14.17,.5,8.33-5.84,15.5-14.17,16.01l-40.24,2.45c-5.59,.34-10.65-2.4-13.54-6.76h0Zm0,0"/><path class="cls-3" d="M817.55,529.18c-2.88-4.36-3.42-10.09-.92-15.1,3.73-7.47,12.81-10.5,20.27-6.78l36.07,18c7.48,3.73,10.5,12.81,6.78,20.28-3.73,7.47-12.81,10.5-20.28,6.77l-36.07-18c-2.46-1.22-4.44-3.03-5.86-5.17h0Zm0,0"/><path class="cls-9" d="M500,962.99c69.54,0,127.72-49.58,141.09-115.21H358.91c13.36,65.63,71.54,115.21,141.09,115.21h0Zm0,0"/><path class="cls-4" d="M546.42,360.36h-92.83c-43.76,0-79.23,35.47-79.23,79.23v134.54c0,43.76,35.47,79.23,79.23,79.23h126.52c2.74,0,4.96-2.22,4.96-4.96v-20.57c0-2.74-2.22-4.96-4.96-4.96h-126.52c-26.88,0-48.75-21.87-48.75-48.75v-134.54c0-26.88,21.87-48.75,48.75-48.75h92.83c26.88,0,48.75,21.87,48.75,48.75v108.79h0c0,4.7-3.82,8.52-8.52,8.52h-69.91c-26.47,0-48.07-21.22-48.72-47.54h90.83c2.94,0,5.33-2.39,5.33-5.33v-23.58c-.89-34.23-28.89-61.71-63.34-61.71s-62.45,27.48-63.34,61.71v28.91h.03c.65,43.2,35.85,78.02,79.2,78.02h69.91c21.54,0,39.01-17.47,39.01-39.01h0v-108.79c0-43.76-35.47-79.23-79.23-79.23Zm-45.58,88.88c17.58,0,31.93,13.87,32.81,31.23h-65.62c.88-17.36,15.24-31.23,32.81-31.23Z"/></svg>