<svg width="54" height="54" viewBox="0 0 54 54" fill="none" xmlns="http://www.w3.org/2000/svg">
<rect width="54" height="54" fill="white"/>
<path d="M54 27C54 41.9119 41.9119 54 27 54C12.0881 54 0 41.9119 0 27C0 12.0881 12.0881 0 27 0C41.9119 0 54 12.0881 54 27Z" fill="url(#paint0_linear)"/>
<path d="M27 5.90625C26.1262 5.90625 25.418 6.61446 25.418 7.48828C25.418 8.36211 26.1262 9.07031 27 9.07031C36.8865 9.07031 44.9297 17.1135 44.9297 27C44.9297 36.8865 36.8865 44.9297 27 44.9297C17.1135 44.9297 9.07031 36.8865 9.07031 27C9.07031 26.1262 8.36211 25.418 7.48828 25.418C6.61446 25.418 5.90625 26.1262 5.90625 27C5.90625 38.6312 15.3688 48.0938 27 48.0938C38.6312 48.0938 48.0938 38.6312 48.0938 27C48.0938 15.3688 38.6312 5.90625 27 5.90625Z" fill="white"/>
<path d="M18.4646 10.9988C18.6664 10.9988 18.8712 10.9601 19.0694 10.8781L21.208 9.99235C22.0151 9.65781 22.3986 8.73249 22.0641 7.92499C21.73 7.11791 20.8042 6.73476 19.9972 7.06888L17.8585 7.95466C17.0515 8.28919 16.6679 9.21451 17.002 10.022C17.2546 10.6313 17.8437 10.9988 18.4646 10.9988Z" fill="white"/>
<path d="M12.3849 15.6036C12.7899 15.6036 13.1944 15.4491 13.5034 15.1401L15.1402 13.5033C15.7582 12.8853 15.7582 11.8838 15.1402 11.2658C14.5227 10.6482 13.5207 10.6482 12.9031 11.2658L11.2659 12.903C10.6483 13.5206 10.6483 14.5221 11.2659 15.1401C11.5749 15.4491 11.9799 15.6036 12.3849 15.6036Z" fill="white"/>
<path d="M7.92549 22.064C8.12324 22.146 8.32841 22.1851 8.53029 22.1851C9.15074 22.1851 9.73988 21.8172 9.99243 21.2079L10.8782 19.0693C11.2123 18.2622 10.8292 17.3364 10.0221 17.0023C9.2146 16.6678 8.28927 17.0513 7.95474 17.8584L7.06897 19.997C6.73485 20.8045 7.11799 21.7299 7.92549 22.064Z" fill="white"/>
<path d="M27 18.8039C26.1262 18.8039 25.418 19.5121 25.418 20.386V25.418H20.386C19.5122 25.418 18.804 26.1262 18.804 27C18.804 27.8738 19.5122 28.582 20.386 28.582H25.418V33.614C25.418 34.4879 26.1262 35.1961 27 35.1961C27.8739 35.1961 28.5821 34.4879 28.5821 33.614V28.582H33.6141C34.4879 28.582 35.1961 27.8738 35.1961 27C35.1961 26.1262 34.4879 25.418 33.6141 25.418H28.5821V20.386C28.5821 19.5121 27.8739 18.8039 27 18.8039Z" fill="#004E7B"/>
<defs>
<linearGradient id="paint0_linear" x1="0" y1="27" x2="54" y2="27" gradientUnits="userSpaceOnUse">
<stop stop-color="#00BBB5"/>
<stop offset="1" stop-color="#00878E"/>
</linearGradient>
</defs>
</svg>
